<?xml version="1.0" encoding="UTF-8" standalone="no"?>
<svg
   viewBox="0 0 566.92913 566.92915"
   height="15cm"
   width="15cm"
   xml:space="preserve"
   id="svg2"
   version="1.1"
   sodipodi:docname="favicon_foreground.svg"
   inkscape:version="1.2.1 (9c6d41e410, 2022-07-14)"
   xmlns:inkscape="http://www.inkscape.org/namespaces/inkscape"
   xmlns:sodipodi="http://sodipodi.sourceforge.net/DTD/sodipodi-0.dtd"
   xmlns="http://www.w3.org/2000/svg"
   xmlns:svg="http://www.w3.org/2000/svg"
   xmlns:rdf="http://www.w3.org/1999/02/22-rdf-syntax-ns#"
   xmlns:cc="http://creativecommons.org/ns#"
   xmlns:dc="http://purl.org/dc/elements/1.1/"><sodipodi:namedview
     id="namedview199"
     pagecolor="#ffffff"
     bordercolor="#000000"
     borderopacity="0.25"
     inkscape:showpageshadow="2"
     inkscape:pageopacity="0.0"
     inkscape:pagecheckerboard="0"
     inkscape:deskcolor="#d1d1d1"
     showgrid="false"
     inkscape:zoom="1.2593502"
     inkscape:cx="255.29039"
     inkscape:cy="408.94105"
     inkscape:window-width="2560"
     inkscape:window-height="1385"
     inkscape:window-x="-4"
     inkscape:window-y="-4"
     inkscape:window-maximized="1"
     inkscape:current-layer="svg2"
     inkscape:document-units="cm" /><metadata
     id="metadata8"><rdf:RDF><cc:Work
         rdf:about=""><dc:format>image/svg+xml</dc:format><dc:type
           rdf:resource="http://purl.org/dc/dcmitype/StillImage" /></cc:Work></rdf:RDF></metadata><defs
     id="defs6"><clipPath
       id="clipPath18"
       clipPathUnits="userSpaceOnUse"><path
         style="clip-rule:evenodd"
         id="path16"
         d="M 0,9.1553e-5 H 793.8 V 446.52009 H 0 Z" /></clipPath></defs><path
     id="Foreground"
     style="fill:#ffffff;fill-opacity:1;fill-rule:evenodd;stroke:none;stroke-width:1.92754"
     d="M 283.46456,60 C 126.91017,60 0,158.78512 0,280.6632 0,402.45054 126.72349,501.17672 283.11727,501.32356 v 0.006 h 0.34729 94.49007 188.97451 l -102.06,-51.12318 c 62.35818,-40.47611 102.06,-101.3911 102.06,-169.54284 0,-121.87812 -126.91019,-220.663242 -283.46458,-220.663242 z M 157.52015,186.06018 c 17.50204,0 31.68869,14.18668 31.68869,31.68869 0,17.50205 -14.18665,31.6887 -31.68869,31.6887 -17.50205,0 -31.68869,-14.18665 -31.68869,-31.6887 0,-17.50201 14.18664,-31.68869 31.68869,-31.68869 z m 252.0074,0 c 17.44424,0 31.57294,14.18665 31.57294,31.68869 0,17.50206 -14.1287,31.6887 -31.57294,31.6887 -17.44421,0 -31.57292,-14.18664 -31.57292,-31.6887 0,-17.50204 14.12871,-31.68869 31.57292,-31.68869 z M 189.21449,312.12035 H 377.949 c 8e-5,0.0389 0.006,0.0769 0.006,0.1158 0,34.6764 -42.25363,62.80137 -94.37431,62.80137 -52.12064,2e-5 -94.37149,-28.12497 -94.37149,-62.80137 0,-0.0389 0.006,-0.0769 0.006,-0.1158 z" /></svg>
